PathFileType	4	(X/Y/Z)	C:\Users\Basilio\Documents\Thesis Gigler\squatting_fais\c3dfiles\054\SLS_back_pre3\markers_experimental.trc
DataRate	CameraRate	NumFrames	NumMarkers	Units	OrigDataRate	OrigDataStartFrame	OrigNumFrames
200.000000	200.000000	4	61	mm	200.000000	920	1472
Frame#	Time	FHD			LBHD			RBHD			C7			T10			CLAV			LSHO			LUUPA			LMUPA			LDUPA			LLEP			LMEP			LRAD			LUL			LRFIN			RSHO			RUPA1			RMUPA			RDUPA			RLEP			RMEP			RRAD			RUL			RUFIN			LASI			RASI			USACR			LSACR			RSACR			LTHI1			LTHI2			LTHI3			LTHI4			LLFC			LMFC			LTIB1			LTIB2			LTIB3			LTIB4			LLMAL			LMMAL			LHEE			LMT1			LMT2			LMT5			RTHI			RTHI2			RTHI3			RTHI4			RLFC			RMFC			RTIB1			RTIB2			RTIB3			RTIB4			RLMAL			RMMAL			RHEE			RMT1			RMT2			RMT5			
		X1	Y1	Z1	X2	Y2	Z2	X3	Y3	Z3	X4	Y4	Z4	X5	Y5	Z5	X6	Y6	Z6	X7	Y7	Z7	X8	Y8	Z8	X9	Y9	Z9	X10	Y10	Z10	X11	Y11	Z11	X12	Y12	Z12	X13	Y13	Z13	X14	Y14	Z14	X15	Y15	Z15	X16	Y16	Z16	X17	Y17	Z17	X18	Y18	Z18	X19	Y19	Z19	X20	Y20	Z20	X21	Y21	Z21	X22	Y22	Z22	X23	Y23	Z23	X24	Y24	Z24	X25	Y25	Z25	X26	Y26	Z26	X27	Y27	Z27	X28	Y28	Z28	X29	Y29	Z29	X30	Y30	Z30	X31	Y31	Z31	X32	Y32	Z32	X33	Y33	Z33	X34	Y34	Z34	X35	Y35	Z35	X36	Y36	Z36	X37	Y37	Z37	X38	Y38	Z38	X39	Y39	Z39	X40	Y40	Z40	X41	Y41	Z41	X42	Y42	Z42	X43	Y43	Z43	X44	Y44	Z44	X45	Y45	Z45	X46	Y46	Z46	X47	Y47	Z47	X48	Y48	Z48	X49	Y49	Z49	X50	Y50	Z50	X51	Y51	Z51	X52	Y52	Z52	X53	Y53	Z53	X54	Y54	Z54	X55	Y55	Z55	X56	Y56	Z56	X57	Y57	Z57	X58	Y58	Z58	X59	Y59	Z59	X60	Y60	Z60	X61	Y61	Z61	

921	4.600000000000001	-3.245394945144654	1413.2099609375	-1095.276489257813	-167.1264343261719	1361.110473632813	-1161.545654296875	-180.6656951904297	1362.3544921875	-1021.586486816406	-225.0207977294922	1227.1806640625	-1072.267822265625	-397.4764709472657	958.9060668945315	-1043.44580078125	-109.0527648925782	1126.172729492188	-1086.45849609375	-154.6814117431641	1215.124267578125	-1219.035522460938	-18.66987037658692	1103.970703125	-1350.198120117188	14.57272815704346	1136.729370117188	-1334.804321289063	48.45891571044923	1095.82470703125	-1361.872802734375	108.1420364379883	1098.47119140625	-1358.542724609375	109.2320022583008	1031.492431640625	-1318.58251953125	359.7097778320313	1124.210083007813	-1266.131958007813	380.4868774414063	1096.008178710938	-1335.369873046875	451.007781982422	1151.414184570313	-1280.102294921875	-141.0768127441407	1218.449340820313	-950.5989379882815	12.07628726959229	1119.738403320313	-821.562194824219	45.79008483886719	1150.338256835938	-836.4382324218752	80.77161407470705	1105.928100585938	-812.791931152344	125.834716796875	1101.718994140625	-816.8619384765627	121.8376007080078	1042.409912109375	-863.909851074219	379.4197082519532	1161.752319335938	-939.8690185546877	388.9910583496095	1133.105346679688	-865.787536621094	454.1154785156251	1196.573852539063	-932.747009277344	-314.8895874023438	751.0618896484376	-1171.619873046875	-318.2820129394532	726.5477294921876	-919.3010864257815	-446.248748779297	887.3887329101565	-1037.140258789063	-470.1026306152345	865.0623779296877	-1065.808349609375	-464.7693481445314	859.4859008789065	-1008.369995117188	-314.7581176757813	591.4740600585939	-1244.855346679688	-233.6273498535157	566.5745239257814	-1235.078735351563	-206.1161041259766	603.9367675781251	-1227.045532226563	-211.0655517578126	512.5662841796876	-1219.863403320313	-112.286117553711	424.0108337402345	-1177.7490234375	-95.16917419433595	452.288055419922	-1042.904418945313	-143.075424194336	286.5896301269532	-1094.32373046875	-206.1080627441407	257.3495788574219	-1150.855834960938	-178.139144897461	245.2005615234376	-1118.546264648438	-227.8297271728516	194.1778869628907	-1074.04931640625	-351.7483520507813	105.4655227661133	-1104.609130859375	-318.8636169433594	130.6792297363282	-1013.135437011719	-427.0426025390626	101.5248031616211	-1043.378784179688	-216.0183258056641	55.38358688354494	-1019.495727539063	-207.7747650146485	53.23548507690431	-1069.13330078125	-260.8573913574219	37.72779083251954	-1119.940185546875	-428.8644104003907	450.009490966797	-841.1926879882815	-391.3664550781251	393.5486450195314	-842.0816040039065	-358.5072021484376	391.6488647460939	-848.976989746094	-425.082244873047	318.7879028320313	-862.564147949219	-446.9799804687501	275.5856323242188	-872.6914062500002	-397.3810424804689	248.6248168945313	-1002.584411621094	-530.7568359375001	212.0074157714844	-910.0076904296877	-607.6068115234376	282.5697937011719	-881.5633544921877	-613.2543334960939	240.7648010253907	-901.6045532226565	-656.1956176757814	236.2291564941407	-939.9822998046877	-827.0814208984377	308.6789245605469	-947.501647949219	-791.954772949219	281.2883300781251	-1035.04736328125	-819.3444824218752	383.3061828613282	-996.9685058593752	-902.0928955078127	187.4914703369141	-1064.661499023438	-915.484069824219	177.1121673583985	-1018.438720703125	-935.2166137695315	223.1990356445313	-971.2907714843752	
922	4.605	-3.300650119781495	1413.63720703125	-1095.417602539063	-167.0180206298828	1361.503540039063	-1161.697998046875	-180.9613952636719	1362.847900390625	-1021.637634277344	-225.1962585449219	1227.68798828125	-1072.424560546875	-397.4024963378907	959.2815551757815	-1043.463256835938	-109.1479034423828	1126.673706054688	-1086.5546875	-154.8004455566407	1215.562622070313	-1219.172485351563	-18.87434768676758	1105.008666992188	-1350.745361328125	14.45887470245362	1137.171752929688	-1334.889282226563	48.89648056030275	1096.271484375	-1361.959594726563	108.0999832153321	1098.968139648438	-1358.601440429688	109.1835403442383	1032.294799804688	-1318.73681640625	359.5472412109376	1124.799438476563	-1266.122436523438	380.5593261718751	1096.740478515625	-1335.36962890625	450.7352294921876	1152.191284179688	-1279.993774414063	-141.3209991455078	1218.8447265625	-950.728942871094	11.95136070251465	1120.06494140625	-821.746276855469	45.51161193847657	1150.720458984375	-836.4355468750002	80.53773498535158	1106.465087890625	-812.7255859375002	125.5042419433594	1102.20703125	-816.8800048828127	121.5972671508789	1043.153564453125	-863.860046386719	379.2824096679688	1162.149291992188	-939.839050292969	388.8685607910157	1133.640014648438	-865.9458007812502	453.9794311523439	1197.011962890625	-932.7579345703127	-314.9050598144532	751.3661499023439	-1171.520141601563	-318.2293090820313	726.8534545898439	-919.3712158203127	-446.261199951172	887.6990356445315	-1037.140869140625	-470.0897827148439	865.3479614257815	-1065.827880859375	-464.6935424804689	859.8659667968752	-1008.444213867188	-314.8134460449219	591.7030639648439	-1245.001342773438	-233.6470031738282	566.7452392578126	-1235.215698242188	-206.0816192626954	604.0394897460939	-1227.253051757813	-211.0969238281251	512.6714477539064	-1220.0283203125	-112.329216003418	424.0168457031251	-1178.044555664063	-95.20088958740236	452.2550659179689	-1043.153686523438	-143.154769897461	286.6385498046876	-1094.55126953125	-206.3435211181641	257.2492980957032	-1151.010864257813	-178.2185211181641	245.2293548583985	-1118.81298828125	-227.8760986328126	194.1751251220704	-1074.231567382813	-351.8410339355469	105.3458786010742	-1104.656372070313	-318.8387451171876	130.6770477294922	-1013.248962402344	-427.0533752441407	101.5347518920899	-1043.4541015625	-215.789535522461	55.39061355590822	-1019.479309082031	-208.1876983642579	53.21167373657228	-1069.426513671875	-260.6898193359376	37.65626525878907	-1120.033325195313	-428.4949340820314	450.4194946289064	-841.181335449219	-391.1435546875001	393.8337402343751	-842.0300292968752	-358.1902465820313	392.0376281738282	-848.9371337890627	-424.7719116210939	319.1648254394532	-862.3279418945315	-446.6582336425782	275.9474792480469	-872.5158691406252	-396.8051147460939	248.9162292480469	-1002.512756347656	-530.3352050781251	212.3555145263672	-910.107849121094	-607.2766113281251	282.9307250976563	-881.5737304687502	-612.6577148437501	241.1351318359376	-901.7170410156252	-655.6860351562501	236.6214447021485	-940.1737060546877	-826.4807739257815	308.8553161621094	-947.6214599609377	-791.4417724609377	281.4681701660157	-1035.050537109375	-818.8419189453127	383.5975036621094	-997.125671386719	-901.8079223632815	187.650863647461	-1064.683959960938	-915.025573730469	177.1374206542969	-1018.83056640625	-934.7056884765627	223.5173034667969	-971.535095214844	
923	4.61	-3.411365509033204	1414.160278320313	-1095.5732421875	-167.1229858398438	1361.7607421875	-1161.819213867188	-181.0109252929688	1363.234252929688	-1021.790161132813	-225.2411804199219	1228.157836914063	-1072.657592773438	-397.466033935547	959.7100830078127	-1043.504638671875	-109.0606689453125	1127.051635742188	-1086.54833984375	-154.9230041503907	1216.052978515625	-1219.24365234375	-18.63108253479004	1105.054931640625	-1350.370971679688	14.46640205383301	1137.699829101563	-1334.9365234375	48.8231887817383	1096.936645507813	-1362.043334960938	108.0555038452149	1099.561279296875	-1358.718383789063	109.0366134643555	1032.588745117188	-1318.2548828125	359.7080078125001	1125.475219726563	-1266.081176757813	380.5911254882813	1097.5498046875	-1335.319580078125	450.6950988769532	1153.10205078125	-1279.841064453125	-141.485580444336	1219.330810546875	-950.8742675781252	11.72554206848145	1120.502563476563	-821.773376464844	45.25011444091798	1151.359375	-836.5042114257815	80.36865997314455	1107.043579101563	-812.8031005859377	125.2977142333985	1102.839965820313	-816.901550292969	121.5197906494141	1043.616577148438	-864.0750122070315	379.6620788574219	1162.156005859375	-940.2161254882815	389.0196838378907	1134.273193359375	-866.0380859375002	453.770233154297	1197.62255859375	-932.743103027344	-315.0468444824219	751.5806274414064	-1171.35986328125	-318.2492370605469	727.2723999023439	-919.2915039062502	-446.3945922851564	888.164489746094	-1037.138671875	-470.3014221191407	865.736511230469	-1065.734008789063	-464.7010803222657	860.1569824218752	-1008.390563964844	-314.8680419921876	591.9425048828126	-1245.084106445313	-233.7419738769532	566.8109741210939	-1235.312744140625	-206.0736236572266	604.1341552734376	-1227.4541015625	-211.1555633544922	512.7994384765626	-1220.180786132813	-112.4312744140625	424.0499572753907	-1178.41748046875	-95.1882781982422	452.2562866210939	-1043.392333984375	-143.2246856689453	286.6797790527344	-1094.874877929688	-206.4678955078126	257.1835632324219	-1151.237915039063	-178.2734680175782	245.2552490234376	-1119.06591796875	-227.9106445312501	194.1974182128907	-1074.41748046875	-351.8470458984376	105.3416061401367	-1104.758544921875	-318.8163452148438	130.6943359375	-1013.364501953125	-427.0346984863282	101.5503845214844	-1043.488403320313	-215.9662017822266	55.4538040161133	-1019.569152832031	-207.8173828125001	53.16457748413087	-1069.22265625	-260.6169738769532	37.5593490600586	-1120.108276367188	-428.3146362304689	450.7217712402345	-841.0869750976565	-390.6433105468751	394.2355041503907	-842.074890136719	-357.8186340332032	392.4885559082032	-848.8303833007815	-424.3799133300782	319.6922607421876	-862.347839355469	-446.1520080566407	276.2630004882813	-872.5426025390627	-396.2020568847657	249.1588897705079	-1002.35791015625	-529.9755249023439	212.578842163086	-910.0750122070315	-606.7766723632814	283.3022155761719	-881.522644042969	-612.1651000976564	241.4178924560547	-901.8162231445315	-655.1507568359376	236.7860412597657	-940.3491210937502	-825.942321777344	309.0614929199219	-947.690368652344	-790.9086914062502	281.7147827148438	-1035.01123046875	-818.4219360351565	383.7982482910157	-997.1428833007815	-901.416198730469	187.8310852050782	-1064.652221679688	-914.406188964844	177.3658599853516	-1019.352844238281	-934.2844848632815	223.6859436035157	-971.678405761719	
924	4.615	-3.665082693099976	1414.661499023438	-1095.616821289063	-167.2332458496094	1362.277587890625	-1161.95166015625	-181.1674499511719	1363.671508789063	-1021.916137695313	-225.4008789062501	1228.6337890625	-1072.664672851563	-397.4249267578126	960.0827636718752	-1043.55224609375	-109.1790542602539	1127.489990234375	-1086.639282226563	-155.0870819091797	1216.437133789063	-1219.309448242188	-18.61565780639649	1105.6201171875	-1350.42626953125	14.40741539001465	1138.2431640625	-1335.118774414063	48.79291152954103	1097.318725585938	-1361.958862304688	107.9701232910157	1100.216918945313	-1358.709228515625	108.9405899047852	1033.201416015625	-1318.06982421875	359.5881042480469	1126.344970703125	-1266.04150390625	380.4946594238282	1098.324340820313	-1335.258178710938	451.0159606933595	1153.689575195313	-1279.7841796875	-141.5441436767578	1219.931396484375	-950.9731445312502	11.51031398773194	1121.162963867188	-821.852233886719	45.17058563232423	1151.835815429688	-836.5620727539065	80.29013061523439	1107.490844726563	-812.904479980469	125.1837310791016	1103.415405273438	-816.924987792969	121.4682235717774	1044.090209960938	-864.133239746094	379.0077514648438	1162.781494140625	-939.8442382812502	388.6947326660157	1134.908203125	-866.0264892578127	453.7313232421876	1198.116821289063	-932.9670410156252	-314.9276123046876	752.0491333007814	-1171.420532226563	-317.8728332519532	727.6479492187501	-919.4252929687502	-446.312713623047	888.596130371094	-1037.18994140625	-470.3454589843751	866.1360473632815	-1065.78857421875	-464.6644287109376	860.4920043945315	-1008.422058105469	-314.9259338378907	592.1939086914064	-1245.20947265625	-233.8666534423829	566.9290771484376	-1235.453125	-206.0618591308594	604.2589721679689	-1227.683227539063	-211.2679748535157	512.9769897460939	-1220.35205078125	-112.5681381225586	424.0691528320314	-1178.669311523438	-95.18627929687501	452.2570190429689	-1043.686279296875	-143.2251434326172	286.8143920898438	-1095.129516601563	-206.6437530517579	257.1109008789063	-1151.437622070313	-178.4013671875	245.3012847900391	-1119.356079101563	-227.9991607666016	194.2284393310547	-1074.644897460938	-351.9060363769532	105.2833251953125	-1104.817504882813	-318.7999267578126	130.7051086425782	-1013.52392578125	-427.0425720214845	101.5482482910157	-1043.514404296875	-215.8901824951172	55.50716400146486	-1019.564270019531	-207.8429565429688	53.19408416748048	-1069.270141601563	-259.9447631835938	37.49948501586915	-1120.007202148438	-428.1207885742189	451.1106872558595	-840.9869384765627	-390.2832336425782	394.669647216797	-842.0225219726565	-357.3966369628907	392.8773193359376	-848.7356567382815	-423.9335937500001	320.0067443847657	-862.3347167968752	-445.7333984375001	276.6286926269532	-872.443542480469	-395.6555175781251	249.5456848144532	-1002.310852050781	-529.4962768554689	212.9127807617188	-909.894958496094	-606.0176391601564	283.5686035156251	-881.499206542969	-611.7247314453126	241.8243713378907	-901.738220214844	-654.7979736328126	237.2073364257813	-940.1311035156252	-825.592224121094	309.2776489257813	-947.7427368164065	-790.4536743164065	281.9547119140626	-1035.209106445313	-817.8005981445315	384.0973510742189	-997.2814941406252	-900.7243652343752	188.324203491211	-1065.027465820313	-913.9067993164065	177.3556365966797	-1019.263061523438	-933.6343994140627	223.8800354003907	-971.8339843750002	
